<svg width="512" height="512" viewBox="0 0 512 512" fill="none" xmlns="http://www.w3.org/2000/svg">
<g clip-path="url(#clip0_518_7)">
<path d="M511.85 0H0.15C0.0671573 0 0 0.0671573 0 0.15V511.85C0 511.933 0.0671573 512 0.15 512H511.85C511.933 512 512 511.933 512 511.85V0.15C512 0.0671573 511.933 0 511.85 0Z" fill="white"/>
<path d="M380 73.0001H345V110C291 35 180 59.0001 149 133C129 181 130 229 151 277C173 327 236 348 286 334C302 331 318 323 329 313C335 308 341 303 345 298C344 317 343 336 340 354C336 377 326 397 304 408C256 433 199 414 178 365H145C147 397 164 418 191 431C223 447 257 449 291 443C335 436 364 411 374 367C378 351 379 335 380 319C380.9 229 379.8 146 380.2 73.0001H380ZM340 251C334 269 323 283 309 293C306 295 289 307 264 308C263 308.1 258 308.2 253 308C252.8 308.1 252.7 308.1 252.4 308.1C216.4 306.1 189.4 285.1 177.4 250.1C167.4 221.1 167.4 191.1 174.4 162.1C185.4 119.1 216.4 93.1 255.4 92.1C256.3 92 256.4 92.0001 256.4 92.0001C276.4 90.0001 292.4 99 298.4 101C319.4 112 335.4 133 342.4 162C349.4 192 350.4 222 340.4 251H340Z" fill="#718096"/>
</g>
<defs>
<clipPath id="clip0_518_7">
<rect width="512" height="512" rx="256" fill="white"/>
</clipPath>
</defs>
</svg>
